%TF.GenerationSoftware,KiCad,Pcbnew,7.0.1*%
%TF.CreationDate,2024-05-04T11:14:45+02:00*%
%TF.ProjectId,VMU,564d552e-6b69-4636-9164-5f7063625858,rev?*%
%TF.SameCoordinates,Original*%
%TF.FileFunction,Paste,Top*%
%TF.FilePolarity,Positive*%
%FSLAX46Y46*%
G04 Gerber Fmt 4.6, Leading zero omitted, Abs format (unit mm)*
G04 Created by KiCad (PCBNEW 7.0.1) date 2024-05-04 11:14:45*
%MOMM*%
%LPD*%
G01*
G04 APERTURE LIST*
G04 Aperture macros list*
%AMRoundRect*
0 Rectangle with rounded corners*
0 $1 Rounding radius*
0 $2 $3 $4 $5 $6 $7 $8 $9 X,Y pos of 4 corners*
0 Add a 4 corners polygon primitive as box body*
4,1,4,$2,$3,$4,$5,$6,$7,$8,$9,$2,$3,0*
0 Add four circle primitives for the rounded corners*
1,1,$1+$1,$2,$3*
1,1,$1+$1,$4,$5*
1,1,$1+$1,$6,$7*
1,1,$1+$1,$8,$9*
0 Add four rect primitives between the rounded corners*
20,1,$1+$1,$2,$3,$4,$5,0*
20,1,$1+$1,$4,$5,$6,$7,0*
20,1,$1+$1,$6,$7,$8,$9,0*
20,1,$1+$1,$8,$9,$2,$3,0*%
G04 Aperture macros list end*
%ADD10RoundRect,0.237500X0.237500X-0.287500X0.237500X0.287500X-0.237500X0.287500X-0.237500X-0.287500X0*%
%ADD11RoundRect,0.250000X0.250000X0.250000X-0.250000X0.250000X-0.250000X-0.250000X0.250000X-0.250000X0*%
%ADD12RoundRect,0.237500X-0.237500X0.300000X-0.237500X-0.300000X0.237500X-0.300000X0.237500X0.300000X0*%
%ADD13RoundRect,0.237500X-0.250000X-0.237500X0.250000X-0.237500X0.250000X0.237500X-0.250000X0.237500X0*%
%ADD14RoundRect,0.150000X0.150000X-0.512500X0.150000X0.512500X-0.150000X0.512500X-0.150000X-0.512500X0*%
%ADD15RoundRect,0.237500X-0.300000X-0.237500X0.300000X-0.237500X0.300000X0.237500X-0.300000X0.237500X0*%
%ADD16RoundRect,0.250000X0.325000X0.450000X-0.325000X0.450000X-0.325000X-0.450000X0.325000X-0.450000X0*%
%ADD17RoundRect,0.250000X-0.250000X-0.250000X0.250000X-0.250000X0.250000X0.250000X-0.250000X0.250000X0*%
%ADD18RoundRect,0.250000X0.475000X-0.337500X0.475000X0.337500X-0.475000X0.337500X-0.475000X-0.337500X0*%
%ADD19RoundRect,0.150000X-0.150000X0.587500X-0.150000X-0.587500X0.150000X-0.587500X0.150000X0.587500X0*%
%ADD20RoundRect,0.150000X0.587500X0.150000X-0.587500X0.150000X-0.587500X-0.150000X0.587500X-0.150000X0*%
%ADD21RoundRect,0.150000X-0.825000X-0.150000X0.825000X-0.150000X0.825000X0.150000X-0.825000X0.150000X0*%
%ADD22RoundRect,0.237500X0.300000X0.237500X-0.300000X0.237500X-0.300000X-0.237500X0.300000X-0.237500X0*%
%ADD23RoundRect,0.237500X0.237500X-0.250000X0.237500X0.250000X-0.237500X0.250000X-0.237500X-0.250000X0*%
%ADD24RoundRect,0.250000X-0.475000X0.337500X-0.475000X-0.337500X0.475000X-0.337500X0.475000X0.337500X0*%
%ADD25RoundRect,0.075000X0.075000X-0.700000X0.075000X0.700000X-0.075000X0.700000X-0.075000X-0.700000X0*%
%ADD26RoundRect,0.075000X0.700000X-0.075000X0.700000X0.075000X-0.700000X0.075000X-0.700000X-0.075000X0*%
%ADD27RoundRect,0.150000X-0.587500X-0.150000X0.587500X-0.150000X0.587500X0.150000X-0.587500X0.150000X0*%
%ADD28RoundRect,0.250000X-0.325000X-0.450000X0.325000X-0.450000X0.325000X0.450000X-0.325000X0.450000X0*%
%ADD29RoundRect,0.250000X-0.337500X-0.475000X0.337500X-0.475000X0.337500X0.475000X-0.337500X0.475000X0*%
%ADD30RoundRect,0.237500X-0.237500X0.250000X-0.237500X-0.250000X0.237500X-0.250000X0.237500X0.250000X0*%
%ADD31RoundRect,0.237500X0.287500X0.237500X-0.287500X0.237500X-0.287500X-0.237500X0.287500X-0.237500X0*%
G04 APERTURE END LIST*
D10*
%TO.C,D5*%
X97250000Y-107790000D03*
X97250000Y-109540000D03*
%TD*%
D11*
%TO.C,D2*%
X164250000Y-93250000D03*
X161750000Y-93250000D03*
%TD*%
D12*
%TO.C,C5*%
X165250000Y-113137500D03*
X165250000Y-114862500D03*
%TD*%
D13*
%TO.C,R3*%
X121587500Y-112012000D03*
X123412500Y-112012000D03*
%TD*%
D14*
%TO.C,U3*%
X108500000Y-110912500D03*
X109450000Y-110912500D03*
X110400000Y-110912500D03*
X110400000Y-108637500D03*
X108500000Y-108637500D03*
%TD*%
D15*
%TO.C,C13*%
X131137500Y-99250000D03*
X132862500Y-99250000D03*
%TD*%
D16*
%TO.C,F1*%
X164025000Y-91000000D03*
X161975000Y-91000000D03*
%TD*%
D17*
%TO.C,D3*%
X159250000Y-111000000D03*
X161750000Y-111000000D03*
%TD*%
D18*
%TO.C,C16*%
X119750000Y-98037500D03*
X119750000Y-95962500D03*
%TD*%
D19*
%TO.C,Q1*%
X137250000Y-98000000D03*
X135350000Y-98000000D03*
X136300000Y-99875000D03*
%TD*%
D15*
%TO.C,C7*%
X108587500Y-106775000D03*
X110312500Y-106775000D03*
%TD*%
D20*
%TO.C,Q4*%
X120187500Y-90450000D03*
X120187500Y-88550000D03*
X118312500Y-89500000D03*
%TD*%
D13*
%TO.C,R7*%
X114837500Y-106262000D03*
X116662500Y-106262000D03*
%TD*%
D12*
%TO.C,C8*%
X134464000Y-90387500D03*
X134464000Y-92112500D03*
%TD*%
D21*
%TO.C,U1*%
X149450000Y-93940000D03*
X149450000Y-95210000D03*
X149450000Y-96480000D03*
X149450000Y-97750000D03*
X149450000Y-99020000D03*
X149450000Y-100290000D03*
X149450000Y-101560000D03*
X144500000Y-101560000D03*
X144500000Y-100290000D03*
X144500000Y-99020000D03*
X144500000Y-97750000D03*
X144500000Y-96480000D03*
X144500000Y-95210000D03*
X144500000Y-93940000D03*
%TD*%
D22*
%TO.C,C2*%
X142362500Y-96500000D03*
X140637500Y-96500000D03*
%TD*%
D10*
%TO.C,D6*%
X93250000Y-109500000D03*
X93250000Y-107750000D03*
%TD*%
D22*
%TO.C,C12*%
X117612500Y-99250000D03*
X115887500Y-99250000D03*
%TD*%
D12*
%TO.C,C10*%
X117250000Y-109637500D03*
X117250000Y-111362500D03*
%TD*%
D19*
%TO.C,Q3*%
X148950000Y-89312500D03*
X147050000Y-89312500D03*
X148000000Y-91187500D03*
%TD*%
D23*
%TO.C,R4*%
X97050000Y-113287500D03*
X97050000Y-111462500D03*
%TD*%
D24*
%TO.C,C15*%
X115250000Y-109712500D03*
X115250000Y-111787500D03*
%TD*%
D21*
%TO.C,U2*%
X149225000Y-103690000D03*
X149225000Y-104960000D03*
X149225000Y-106230000D03*
X149225000Y-107500000D03*
X149225000Y-108770000D03*
X149225000Y-110040000D03*
X149225000Y-111310000D03*
X144275000Y-111310000D03*
X144275000Y-110040000D03*
X144275000Y-108770000D03*
X144275000Y-107500000D03*
X144275000Y-106230000D03*
X144275000Y-104960000D03*
X144275000Y-103690000D03*
%TD*%
D15*
%TO.C,C14*%
X131250000Y-111500000D03*
X132975000Y-111500000D03*
%TD*%
D25*
%TO.C,U5*%
X121250000Y-109925000D03*
X121750000Y-109925000D03*
X122250000Y-109925000D03*
X122750000Y-109925000D03*
X123250000Y-109925000D03*
X123750000Y-109925000D03*
X124250000Y-109925000D03*
X124750000Y-109925000D03*
X125250000Y-109925000D03*
X125750000Y-109925000D03*
X126250000Y-109925000D03*
X126750000Y-109925000D03*
X127250000Y-109925000D03*
X127750000Y-109925000D03*
X128250000Y-109925000D03*
X128750000Y-109925000D03*
D26*
X130675000Y-108000000D03*
X130675000Y-107500000D03*
X130675000Y-107000000D03*
X130675000Y-106500000D03*
X130675000Y-106000000D03*
X130675000Y-105500000D03*
X130675000Y-105000000D03*
X130675000Y-104500000D03*
X130675000Y-104000000D03*
X130675000Y-103500000D03*
X130675000Y-103000000D03*
X130675000Y-102500000D03*
X130675000Y-102000000D03*
X130675000Y-101500000D03*
X130675000Y-101000000D03*
X130675000Y-100500000D03*
D25*
X128750000Y-98575000D03*
X128250000Y-98575000D03*
X127750000Y-98575000D03*
X127250000Y-98575000D03*
X126750000Y-98575000D03*
X126250000Y-98575000D03*
X125750000Y-98575000D03*
X125250000Y-98575000D03*
X124750000Y-98575000D03*
X124250000Y-98575000D03*
X123750000Y-98575000D03*
X123250000Y-98575000D03*
X122750000Y-98575000D03*
X122250000Y-98575000D03*
X121750000Y-98575000D03*
X121250000Y-98575000D03*
D26*
X119325000Y-100500000D03*
X119325000Y-101000000D03*
X119325000Y-101500000D03*
X119325000Y-102000000D03*
X119325000Y-102500000D03*
X119325000Y-103000000D03*
X119325000Y-103500000D03*
X119325000Y-104000000D03*
X119325000Y-104500000D03*
X119325000Y-105000000D03*
X119325000Y-105500000D03*
X119325000Y-106000000D03*
X119325000Y-106500000D03*
X119325000Y-107000000D03*
X119325000Y-107500000D03*
X119325000Y-108000000D03*
%TD*%
D22*
%TO.C,C3*%
X163862500Y-95250000D03*
X162137500Y-95250000D03*
%TD*%
D10*
%TO.C,D7*%
X95250000Y-109500000D03*
X95250000Y-107750000D03*
%TD*%
D22*
%TO.C,C9*%
X123382000Y-113712000D03*
X121657000Y-113712000D03*
%TD*%
D21*
%TO.C,U4*%
X136750000Y-89230000D03*
X136750000Y-90500000D03*
X136750000Y-91770000D03*
X136750000Y-93040000D03*
X141700000Y-93040000D03*
X141700000Y-91770000D03*
X141700000Y-90500000D03*
X141700000Y-89230000D03*
%TD*%
D27*
%TO.C,Q2*%
X125750000Y-114300000D03*
X125750000Y-116200000D03*
X127625000Y-115250000D03*
%TD*%
D12*
%TO.C,C11*%
X119000000Y-109637500D03*
X119000000Y-111362500D03*
%TD*%
D10*
%TO.C,D4*%
X160000000Y-113125000D03*
X160000000Y-114875000D03*
%TD*%
D15*
%TO.C,C6*%
X108587500Y-105025000D03*
X110312500Y-105025000D03*
%TD*%
D23*
%TO.C,R6*%
X95250000Y-113287500D03*
X95250000Y-111462500D03*
%TD*%
D12*
%TO.C,C4*%
X163500000Y-113137500D03*
X163500000Y-114862500D03*
%TD*%
D16*
%TO.C,F5*%
X115275000Y-89000000D03*
X113225000Y-89000000D03*
%TD*%
D27*
%TO.C,Q6*%
X137375000Y-114050000D03*
X137375000Y-115950000D03*
X139250000Y-115000000D03*
%TD*%
D28*
%TO.C,F2*%
X148225000Y-115750000D03*
X150275000Y-115750000D03*
%TD*%
D17*
%TO.C,D1*%
X161750000Y-88750000D03*
X164250000Y-88750000D03*
%TD*%
D29*
%TO.C,C17*%
X131227000Y-109688500D03*
X133302000Y-109688500D03*
%TD*%
D28*
%TO.C,F4*%
X103700000Y-88750000D03*
X105750000Y-88750000D03*
%TD*%
D27*
%TO.C,Q7*%
X131062500Y-114300000D03*
X131062500Y-116200000D03*
X132937500Y-115250000D03*
%TD*%
D30*
%TO.C,R2*%
X144116000Y-90349500D03*
X144116000Y-92174500D03*
%TD*%
D16*
%TO.C,F3*%
X105775000Y-115000000D03*
X103725000Y-115000000D03*
%TD*%
D31*
%TO.C,FB1*%
X161375000Y-109000000D03*
X159625000Y-109000000D03*
%TD*%
D22*
%TO.C,C1*%
X142112500Y-108500000D03*
X140387500Y-108500000D03*
%TD*%
D23*
%TO.C,R1*%
X158250000Y-114912500D03*
X158250000Y-113087500D03*
%TD*%
D13*
%TO.C,R8*%
X114837500Y-104512000D03*
X116662500Y-104512000D03*
%TD*%
D23*
%TO.C,R5*%
X93500000Y-113287500D03*
X93500000Y-111462500D03*
%TD*%
M02*
