%TF.GenerationSoftware,KiCad,Pcbnew,7.0.1*%
%TF.CreationDate,2024-05-04T11:14:46+02:00*%
%TF.ProjectId,VMU,564d552e-6b69-4636-9164-5f7063625858,rev?*%
%TF.SameCoordinates,Original*%
%TF.FileFunction,Soldermask,Bot*%
%TF.FilePolarity,Negative*%
%FSLAX46Y46*%
G04 Gerber Fmt 4.6, Leading zero omitted, Abs format (unit mm)*
G04 Created by KiCad (PCBNEW 7.0.1) date 2024-05-04 11:14:46*
%MOMM*%
%LPD*%
G01*
G04 APERTURE LIST*
%ADD10C,1.100000*%
%ADD11R,1.500000X1.500000*%
%ADD12C,1.500000*%
%ADD13R,1.700000X1.700000*%
%ADD14O,1.700000X1.700000*%
%ADD15C,1.524000*%
G04 APERTURE END LIST*
D10*
%TO.C,J8*%
X94480000Y-93250000D03*
X95750000Y-93250000D03*
X94480000Y-94520000D03*
X95750000Y-94520000D03*
X94480000Y-95790000D03*
X95750000Y-95790000D03*
X94480000Y-97060000D03*
X95750000Y-97060000D03*
X94480000Y-98330000D03*
X95750000Y-98330000D03*
%TD*%
D11*
%TO.C,J2*%
X164250000Y-80000000D03*
D12*
X164250000Y-85080000D03*
X161710000Y-80000000D03*
X161710000Y-85080000D03*
X159170000Y-80000000D03*
X159170000Y-85080000D03*
X156630000Y-80000000D03*
X156630000Y-85080000D03*
X154090000Y-80000000D03*
X154090000Y-85080000D03*
X151550000Y-80000000D03*
X151550000Y-85080000D03*
X149010000Y-80000000D03*
X149010000Y-85080000D03*
X146470000Y-80000000D03*
X146470000Y-85080000D03*
X143930000Y-80000000D03*
X143930000Y-85080000D03*
X141390000Y-80000000D03*
X141390000Y-85080000D03*
X138850000Y-80000000D03*
X138850000Y-85080000D03*
X136310000Y-80000000D03*
X136310000Y-85080000D03*
X133770000Y-80000000D03*
X133770000Y-85080000D03*
X131230000Y-80000000D03*
X131230000Y-85080000D03*
%TD*%
D13*
%TO.C,J5*%
X104500000Y-112025000D03*
D14*
X104500000Y-109485000D03*
%TD*%
D11*
%TO.C,J1*%
X125520000Y-80000000D03*
D12*
X125520000Y-85080000D03*
X122980000Y-80000000D03*
X122980000Y-85080000D03*
X120440000Y-80000000D03*
X120440000Y-85080000D03*
X117900000Y-80000000D03*
X117900000Y-85080000D03*
X115360000Y-80000000D03*
X115360000Y-85080000D03*
X112820000Y-80000000D03*
X112820000Y-85080000D03*
X110280000Y-80000000D03*
X110280000Y-85080000D03*
X107740000Y-80000000D03*
X107740000Y-85080000D03*
X105200000Y-80000000D03*
X105200000Y-85080000D03*
X102660000Y-80000000D03*
X102660000Y-85080000D03*
X100120000Y-80000000D03*
X100120000Y-85080000D03*
X97580000Y-80000000D03*
X97580000Y-85080000D03*
X95040000Y-80000000D03*
X95040000Y-85080000D03*
X92500000Y-80000000D03*
X92500000Y-85080000D03*
%TD*%
D14*
%TO.C,J3*%
X100750000Y-112030000D03*
X100750000Y-109490000D03*
X100750000Y-106950000D03*
X100750000Y-104410000D03*
X100750000Y-101870000D03*
X100750000Y-99330000D03*
X100750000Y-96790000D03*
D13*
X100750000Y-94250000D03*
%TD*%
D11*
%TO.C,J6*%
X133480000Y-124500000D03*
D12*
X133480000Y-119420000D03*
X136020000Y-124500000D03*
X136020000Y-119420000D03*
X138560000Y-124500000D03*
X138560000Y-119420000D03*
X141100000Y-124500000D03*
X141100000Y-119420000D03*
X143640000Y-124500000D03*
X143640000Y-119420000D03*
X146180000Y-124500000D03*
X146180000Y-119420000D03*
X148720000Y-124500000D03*
X148720000Y-119420000D03*
X151260000Y-124500000D03*
X151260000Y-119420000D03*
X153800000Y-124500000D03*
X153800000Y-119420000D03*
X156340000Y-124500000D03*
X156340000Y-119420000D03*
X158880000Y-124500000D03*
X158880000Y-119420000D03*
X161420000Y-124500000D03*
X161420000Y-119420000D03*
X163960000Y-124500000D03*
X163960000Y-119420000D03*
X166500000Y-124500000D03*
X166500000Y-119420000D03*
%TD*%
D13*
%TO.C,J4*%
X153500000Y-94250000D03*
D14*
X153500000Y-96790000D03*
X153500000Y-99330000D03*
X153500000Y-101870000D03*
X153500000Y-104410000D03*
X153500000Y-106950000D03*
X153500000Y-109490000D03*
X153500000Y-112030000D03*
%TD*%
D11*
%TO.C,J7*%
X95000000Y-124500000D03*
D12*
X95000000Y-119420000D03*
X97540000Y-124500000D03*
X97540000Y-119420000D03*
X100080000Y-124500000D03*
X100080000Y-119420000D03*
X102620000Y-124500000D03*
X102620000Y-119420000D03*
X105160000Y-124500000D03*
X105160000Y-119420000D03*
X107700000Y-124500000D03*
X107700000Y-119420000D03*
X110240000Y-124500000D03*
X110240000Y-119420000D03*
X112780000Y-124500000D03*
X112780000Y-119420000D03*
X115320000Y-124500000D03*
X115320000Y-119420000D03*
X117860000Y-124500000D03*
X117860000Y-119420000D03*
X120400000Y-124500000D03*
X120400000Y-119420000D03*
X122940000Y-124500000D03*
X122940000Y-119420000D03*
X125480000Y-124500000D03*
X125480000Y-119420000D03*
X128020000Y-124500000D03*
X128020000Y-119420000D03*
%TD*%
D15*
%TO.C,VR1*%
X160587500Y-99547500D03*
X160587500Y-102087500D03*
X160587500Y-104627500D03*
%TD*%
M02*
